<svg focusable="false" viewBox="0 0 34 40" fill="none" xmlns="http://www.w3.org/2000/svg">
<g clip-path="url(#clip0_78_4393)">
<path d="M4.03424 27.7985L10.2635 21.5693C10.4561 21.3766 10.5136 21.0872 10.4094 20.8355C10.3052 20.5839 10.0596 20.4199 9.78744 20.4199L3.55822 20.4199C3.18643 20.4199 2.88494 20.7213 2.88494 21.0931L2.88494 27.3223C2.88494 27.5946 3.04893 27.8402 3.30057 27.9443C3.55221 28.0486 3.84174 27.991 4.03424 27.7985ZM4.23151 21.7664L8.16205 21.7664L4.23151 25.697L4.23151 21.7664Z" fill="currentColor"/>
<path d="M24.0162 39.3554C24.2457 39.2419 24.391 39.008 24.391 38.7519L24.391 35.084L26.6068 35.084C26.9786 35.084 27.28 34.7827 27.28 34.4108L27.28 16.2625L32.9547 16.2625C33.3265 16.2625 33.6279 15.9612 33.6279 15.5893L33.6279 11.4155C33.6279 11.0436 33.3265 10.7423 32.9547 10.7423L27.28 10.7423L27.28 6.67406L31.9351 6.67406C32.3069 6.67406 32.6083 6.37274 32.6083 6.00086L32.6083 3.3375C32.6083 2.44563 32.2613 1.60742 31.6306 0.976876C30.9996 0.346798 30.1614 1.33466e-06 29.271 0.000157546L6.83965 0.000156565C6.82824 7.84397e-05 6.81676 3.14234e-07 6.80527 3.13731e-07C5.91348 2.7475e-07 5.07528 0.347031 4.4452 0.977266C3.81496 1.60742 3.46793 2.44555 3.46793 3.3375L3.46793 17.9063L1.0448 17.9063C0.673009 17.9063 0.371602 18.2076 0.371602 18.5795L0.371601 33.3901C0.371601 33.6623 0.535588 33.908 0.787228 34.012C1.03887 34.1162 1.32832 34.0587 1.5209 33.8662L3.46801 31.9191L3.46801 34.4107C3.46801 34.7826 3.76942 35.0839 4.14121 35.0839L18.0909 35.0839L18.0909 38.7518C18.0909 39.0079 18.2361 39.2417 18.4657 39.3553C20.2035 40.2149 22.2784 40.2149 24.0162 39.3554ZM13.4317 12.0887L13.4317 13.0311C13.4317 13.403 13.7331 13.7043 14.1049 13.7043C14.4767 13.7043 14.7781 13.403 14.7781 13.0311L14.7781 12.0887L16.6361 12.0887L16.6361 13.0311C16.6361 13.403 16.9375 13.7043 17.3093 13.7043C17.6811 13.7043 17.9825 13.403 17.9825 13.0311L17.9825 12.0887L19.8405 12.0887L19.8405 13.0311C19.8405 13.403 20.1419 13.7043 20.5137 13.7043C20.8855 13.7043 21.1869 13.403 21.1869 13.0311L21.1869 12.0887L23.045 12.0887L23.045 13.0311C23.045 13.403 23.3464 13.7043 23.7182 13.7043C24.09 13.7043 24.3914 13.403 24.3914 13.0311L24.3914 12.0887L26.2494 12.0887L26.2494 13.0311C26.2494 13.403 26.5508 13.7043 26.9226 13.7043C27.2944 13.7043 27.5958 13.403 27.5958 13.0311L27.5958 12.0887L29.454 12.0887L29.454 13.0311C29.454 13.403 29.7554 13.7043 30.1272 13.7043C30.499 13.7043 30.8004 13.403 30.8004 13.0311L30.8004 12.0887L32.2814 12.0887L32.2814 14.916L11.9506 14.916L11.9506 12.0887L13.4317 12.0887ZM30.6791 1.92945C31.055 2.30531 31.2619 2.80531 31.2619 3.3375L31.2619 5.32758L10.1428 5.32758L10.1428 3.3375C10.1428 2.59203 9.89707 1.90289 9.48246 1.34672L29.271 1.34649C29.8024 1.34649 30.3027 1.55367 30.6791 1.92945ZM1.71801 19.2527L14.23 19.2527L1.71801 31.7648L1.71801 19.2527ZM4.81434 33.7375L4.81434 30.5727L16.3313 19.0555C16.5239 18.8629 16.5815 18.5734 16.4772 18.3218C16.373 18.0702 16.1275 17.9062 15.8553 17.9062L4.81426 17.9062L4.81426 3.3375C4.81426 2.80531 5.02129 2.30531 5.39707 1.92945C5.77301 1.55359 6.27309 1.34648 6.8052 1.34648L6.83168 1.34664C7.91738 1.36086 8.79621 2.24844 8.79621 3.33742L8.79621 6.00078C8.79621 6.37266 9.09762 6.67398 9.46942 6.67398L25.9334 6.67399L25.9334 10.7422L11.2774 10.7422C10.9056 10.7422 10.6042 11.0435 10.6042 11.4154L10.6042 15.5892C10.6042 15.9611 10.9056 16.2624 11.2774 16.2624L25.9334 16.2624L25.9334 33.7374L24.3909 33.7374L24.3909 25.9212C24.3909 25.7877 24.3512 25.6572 24.2768 25.5463L21.8001 21.8521C21.675 21.6657 21.4654 21.5538 21.241 21.5538C21.0166 21.5538 20.8068 21.6657 20.6818 21.8521L18.205 25.5463C18.1307 25.6571 18.091 25.7877 18.091 25.9212L18.091 33.7375L4.81434 33.7375ZM22.33 25.0602L22.6731 25.5718C21.7363 25.8202 20.7457 25.8202 19.8089 25.5718L20.152 25.0602C20.4968 25.193 20.8648 25.262 21.2411 25.262C21.6171 25.262 21.985 25.193 22.33 25.0602ZM21.2411 23.9155C21.1386 23.9155 21.0375 23.9053 20.9383 23.8873L21.241 23.4359L21.5436 23.8873C21.4444 23.9053 21.3434 23.9155 21.2411 23.9155ZM19.4373 35.464L19.4373 26.8655C19.8088 26.9655 20.1868 27.0348 20.5676 27.0718L20.5676 35.7586C20.1823 35.7059 19.8027 35.6077 19.4373 35.464ZM21.9142 27.0718C22.295 27.0348 22.6731 26.9656 23.0444 26.8656L23.0444 35.4641C22.6791 35.6077 22.2996 35.7059 21.9142 35.7586L21.9142 27.0718ZM19.4373 38.3144L19.4373 36.8881C20.6107 37.2386 21.8711 37.2386 23.0443 36.8881L23.0443 38.3144C21.8907 38.7678 20.5912 38.7678 19.4373 38.3144Z" fill="currentColor"/>
</g>
<defs>
<clipPath id="clip0_78_4393">
<rect width="40" height="34" fill="currentColor" transform="translate(34 1.48619e-06) rotate(90)"/>
</clipPath>
</defs>
</svg>